<svg xmlns="http://www.w3.org/2000/svg" version="1.1" xmlns:xlink="http://www.w3.org/1999/xlink" xmlns:svgjs="http://svgjs.dev/svgjs" width="2000" height="545" viewBox="0 0 2000 545"><g transform="matrix(1,0,0,1,-1.2121212121212466,-0.2530499994147135)"><svg viewBox="0 0 396 108" data-background-color="#ffffff" preserveAspectRatio="xMidYMid meet" height="545" width="2000" xmlns="http://www.w3.org/2000/svg" xmlns:xlink="http://www.w3.org/1999/xlink"><g id="tight-bounds" transform="matrix(1,0,0,1,0.2400000000000091,0.0501456879574107)"><svg viewBox="0 0 395.52 107.89970862408515" height="107.89970862408515" width="395.52"><g><svg viewBox="0 0 580.1465635208779 158.26669994732765" height="107.89970862408515" width="395.52"><g transform="matrix(1,0,0,1,184.62656352087797,50.50333912935709)"><svg viewBox="0 0 395.5199999999999 57.26002168861347" height="57.26002168861347" width="395.5199999999999"><g id="textblocktransform"><svg viewBox="0 0 395.5199999999999 57.26002168861347" height="57.26002168861347" width="395.5199999999999" id="textblock"><g><svg viewBox="0 0 395.5199999999999 57.26002168861347" height="57.26002168861347" width="395.5199999999999"><g transform="matrix(1,0,0,1,0,0)"><svg width="395.5199999999999" viewBox="3.96 -36.11 315.15000000000003 45.629999999999995" height="57.26002168861347" data-palette-color="#000000"><path d="M11.43 0L3.96 0 3.96-33.59 15.45-33.59Q19.14-33.59 22.16-32.59 25.17-31.59 26.95-29.25 28.74-26.9 28.74-22.83L28.74-22.83Q28.74-18.9 26.95-16.38 25.17-13.87 22.19-12.67 19.21-11.47 15.65-11.47L15.65-11.47 11.43-11.47 11.43 0ZM11.43-27.66L11.43-17.41 15.19-17.41Q21.48-17.41 21.48-22.83L21.48-22.83Q21.48-25.49 19.8-26.57 18.12-27.66 14.99-27.66L14.99-27.66 11.43-27.66ZM41.48 0L34.01 0 34.01-25.56 40.09-25.56 40.65-21.07 40.79-21.07Q42.19-23.61 44.14-24.89 46.09-26.17 48.07-26.17L48.07-26.17Q49.14-26.17 49.84-26.03 50.53-25.88 51.12-25.66L51.12-25.66 49.66-19.31Q49.02-19.48 48.48-19.56 47.95-19.63 47.09-19.63L47.09-19.63Q45.68-19.63 44.08-18.57 42.48-17.5 41.48-14.89L41.48-14.89 41.48 0ZM65.3 0.61L65.3 0.61Q62.08 0.61 59.25-0.96 56.42-2.54 54.65-5.53 52.88-8.52 52.88-12.77L52.88-12.77Q52.88-16.99 54.65-20 56.42-23 59.25-24.58 62.08-26.17 65.3-26.17L65.3-26.17Q68.55-26.17 71.38-24.58 74.21-23 75.97-20 77.73-16.99 77.73-12.77L77.73-12.77Q77.73-8.52 75.97-5.53 74.21-2.54 71.38-0.96 68.55 0.61 65.3 0.61ZM65.3-5.35L65.3-5.35Q67.7-5.35 68.9-7.37 70.11-9.4 70.11-12.77L70.11-12.77Q70.11-16.14 68.9-18.14 67.7-20.14 65.3-20.14L65.3-20.14Q62.91-20.14 61.71-18.14 60.52-16.14 60.52-12.77L60.52-12.77Q60.52-9.4 61.71-7.37 62.91-5.35 65.3-5.35ZM90.45 0L82.98 0 82.98-25.56 89.06-25.56 89.62-22.24 89.76-22.24Q91.35-23.83 93.19-25 95.04-26.17 97.55-26.17L97.55-26.17Q100.24-26.17 101.95-25.02 103.65-23.88 104.56-21.85L104.56-21.85Q106.27-23.63 108.18-24.9 110.1-26.17 112.61-26.17L112.61-26.17Q116.74-26.17 118.67-23.41 120.6-20.65 120.6-15.87L120.6-15.87 120.6 0 113.18 0 113.18-14.94Q113.18-17.72 112.38-18.77 111.59-19.82 109.93-19.82L109.93-19.82Q107.95-19.82 105.49-17.26L105.49-17.26 105.49 0 98.06 0 98.06-14.94Q98.06-17.72 97.28-18.77 96.5-19.82 94.87-19.82L94.87-19.82Q93.91-19.82 92.78-19.19 91.64-18.55 90.45-17.26L90.45-17.26 90.45 0ZM134.56 9.52L127.09 9.52 127.09-25.56 133.17-25.56 133.73-23.02 133.88-23.02Q135.39-24.34 137.29-25.26 139.2-26.17 141.2-26.17L141.2-26.17Q144.3-26.17 146.54-24.56 148.77-22.95 149.99-20.03 151.21-17.11 151.21-13.18L151.21-13.18Q151.21-8.81 149.66-5.73 148.11-2.64 145.64-1.01 143.18 0.61 140.42 0.61L140.42 0.61Q138.78 0.61 137.23-0.09 135.68-0.78 134.29-2.05L134.29-2.05 134.56 2 134.56 9.52ZM138.69-5.44L138.69-5.44Q140.74-5.44 142.15-7.28 143.57-9.11 143.57-13.09L143.57-13.09Q143.57-20.09 139.03-20.09L139.03-20.09Q136.71-20.09 134.56-17.72L134.56-17.72 134.56-7.1Q135.61-6.18 136.66-5.81 137.71-5.44 138.69-5.44ZM166.34 0.61L166.34 0.61Q161.63 0.61 159.61-2.1 157.58-4.81 157.58-9.2L157.58-9.2 157.58-19.68 154.06-19.68 154.06-25.24 158-25.56 158.87-33.37 165-33.37 165-25.56 171.18-25.56 171.18-19.68 165-19.68 165-9.33Q165-7.1 165.93-6.15 166.86-5.2 168.35-5.2L168.35-5.2Q169.67-5.2 170.76-5.62L170.76-5.62 172.01-0.39Q171.01-0.02 169.57 0.29 168.13 0.61 166.34 0.61ZM203.16 0.61L203.16 0.61Q199.76 0.61 196.53-0.6 193.29-1.81 190.73-4.27L190.73-4.27 194.71-9.16Q196.49-7.54 198.8-6.68 201.11-5.81 203.3-5.81L203.3-5.81Q205.74-5.81 206.95-6.71 208.16-7.62 208.16-9.16L208.16-9.16Q208.16-10.79 206.82-11.55 205.48-12.3 203.25-13.23L203.25-13.23 198.88-15.09Q197.15-15.82 195.59-17.03 194.03-18.24 193.05-20.03 192.07-21.83 192.07-24.27L192.07-24.27Q192.07-27.03 193.61-29.28 195.15-31.54 197.86-32.87 200.57-34.2 204.04-34.2L204.04-34.2Q207.06-34.2 209.87-33.11 212.68-32.01 214.75-30.03L214.75-30.03 210.85-25.15Q207.4-27.76 204.04-27.76L204.04-27.76Q202.03-27.76 200.85-26.95 199.67-26.15 199.67-24.68L199.67-24.68Q199.67-23.1 201.13-22.29 202.59-21.48 204.82-20.61L204.82-20.61 209.09-18.9Q212.19-17.63 213.98-15.48 215.78-13.33 215.78-9.72L215.78-9.72Q215.78-6.93 214.29-4.59 212.8-2.25 209.98-0.82 207.16 0.61 203.16 0.61ZM228.35 0L220.88 0 220.88-36.11 228.35-36.11 228.35-27.25 227.98-22.61Q229.45-23.93 231.38-25.05 233.31-26.17 235.92-26.17L235.92-26.17Q240.07-26.17 241.94-23.41 243.8-20.65 243.8-15.87L243.8-15.87 243.8 0 236.38 0 236.38-14.94Q236.38-17.72 235.61-18.77 234.84-19.82 233.13-19.82L233.13-19.82Q231.72-19.82 230.67-19.15 229.62-18.48 228.35-17.26L228.35-17.26 228.35 0ZM256.69 0.61L256.69 0.61Q253.22 0.61 251.14-1.6 249.05-3.81 249.05-7.06L249.05-7.06Q249.05-11.11 252.48-13.37 255.91-15.63 263.53-16.43L263.53-16.43Q263.43-18.14 262.49-19.19 261.55-20.24 259.4-20.24L259.4-20.24Q257.79-20.24 256.13-19.65 254.47-19.07 252.61-18.02L252.61-18.02 249.98-22.78Q252.37-24.29 255.1-25.23 257.84-26.17 260.87-26.17L260.87-26.17Q265.75-26.17 268.35-23.32 270.95-20.46 270.95-14.62L270.95-14.62 270.95 0 264.87 0 264.36-2.61 264.16-2.61Q262.53-1.2 260.7-0.29 258.86 0.61 256.69 0.61ZM259.21-5.15L259.21-5.15Q260.5-5.15 261.49-5.73 262.48-6.3 263.53-7.35L263.53-7.35 263.53-11.94Q259.35-11.38 257.75-10.25 256.15-9.13 256.15-7.67L256.15-7.67Q256.15-6.4 256.98-5.77 257.81-5.15 259.21-5.15ZM284.81 0L277.34 0 277.34-25.56 283.42-25.56 283.98-21.07 284.13-21.07Q285.52-23.61 287.48-24.89 289.43-26.17 291.41-26.17L291.41-26.17Q292.48-26.17 293.18-26.03 293.87-25.88 294.46-25.66L294.46-25.66 292.99-19.31Q292.36-19.48 291.82-19.56 291.28-19.63 290.43-19.63L290.43-19.63Q289.01-19.63 287.41-18.57 285.81-17.5 284.81-14.89L284.81-14.89 284.81 0ZM309.1 0.61L309.1 0.61Q305.51 0.61 302.58-0.98 299.66-2.56 297.93-5.55 296.21-8.54 296.21-12.77L296.21-12.77Q296.21-16.89 297.95-19.9 299.68-22.9 302.45-24.54 305.22-26.17 308.27-26.17L308.27-26.17Q311.89-26.17 314.29-24.57 316.7-22.97 317.9-20.19 319.11-17.41 319.11-13.89L319.11-13.89Q319.11-12.92 319.02-12 318.92-11.08 318.8-10.6L318.8-10.6 303.44-10.6Q303.93-7.79 305.73-6.41 307.54-5.03 310.13-5.03L310.13-5.03Q311.62-5.03 313.02-5.46 314.43-5.88 315.82-6.69L315.82-6.69 318.19-2.25Q316.21-0.85 313.82-0.12 311.42 0.61 309.1 0.61ZM303.34-15.5L303.34-15.5 312.77-15.5Q312.77-17.7 311.74-19.1 310.71-20.51 308.44-20.51L308.44-20.51Q306.59-20.51 305.16-19.24 303.73-17.97 303.34-15.5Z" opacity="1" transform="matrix(1,0,0,1,0,0)" fill="#000000" class="wordmark-text-0" data-fill-palette-color="primary" id="text-0"></path></svg></g></svg></g></svg></g></svg></g><g><svg viewBox="0 0 171.10884664071685 158.26669994732765" height="158.26669994732765" width="171.10884664071685"><g><svg xmlns="http://www.w3.org/2000/svg" xmlns:xlink="http://www.w3.org/1999/xlink" version="1.1" x="0" y="0" viewBox="6.007 9.31 89.52399999999999 82.805" enable-background="new 0 0 100 100" xml:space="preserve" height="158.26669994732765" width="171.10884664071685" class="icon-icon-0" data-fill-palette-color="accent" id="icon-0"><g fill="#ff8725" data-fill-palette-color="accent"><path d="M81.688 33.514C78.883 31.479 80.885 29 80.885 29h-0.109c3.213 0 5.357-4.713 5.357-8.779 0-6.257-5.078-10.911-11.342-10.911-6.262 0-11.34 5.29-11.34 11.553 0 4.136 2.219 7.871 5.541 9.847 0.377 0.383 1.473 1.785-0.635 3.452-4.633 1.51-8.549 4.643-11.104 8.676 7.99 5.844 13.414 14.738 14.809 24.687 0.896 0.033 1.801 0.059 2.729 0.059 11.453 0 20.74-2.633 20.74-14.09C95.531 44.454 89.752 36.35 81.688 33.514z" fill="#ff8725" data-fill-palette-color="accent"></path></g><path d="M45.356 44.812c-3.994-2.893-1.141-5.193-1.141-5.193l-0.161-0.014c4.582-2.847 7.629-7.925 7.629-13.718 0-8.913-7.225-16.141-16.14-16.141-8.926 0-16.152 7.228-16.152 16.141 0 5.896 3.164 11.051 7.888 13.881 0.54 0.521 2.097 2.463-0.905 4.825C14.555 48.454 6.007 59.557 6.007 72.668c0 16.305 13.224 19.447 29.536 19.447 16.302 0 29.525-3.143 29.525-19.447C65.068 59.807 56.832 48.859 45.356 44.812z" fill="#ff8725" data-fill-palette-color="accent"></path></svg></g></svg></g></svg></g><defs></defs></svg><rect width="395.52" height="107.89970862408515" fill="none" stroke="none" visibility="hidden"></rect></g></svg></g></svg>